<?xml version="1.0" encoding="utf-8"?>
<svg id="master-artboard" viewBox="0 0 980.5629272460938 980" version="1.1" xmlns="http://www.w3.org/2000/svg" x="0px" y="0px" style="enable-background:new 0 0 336 235.2;" width="980.5629272460938px" height="980px"><rect id="ee-background" x="0" y="0" width="980.5629272460938" height="980" style="fill: white; fill-opacity: 0; pointer-events: none;"/><defs><clipPath id="clip0_0_1288">
<path d="M 0 0 H 20 V 20 H 0 V 0 Z" fill="white" transform="matrix(1 0 0 -1 0 20)"/>
</clipPath></defs><g transform="matrix(1, 0, 0, 1, -209.5845546722412, 0.000032824584195623174)"><g transform="matrix(3.2423450591068095e-9, 49.000003814697266, -49.000003814697266, 3.2423450591068095e-9, 1189.9998779296875, 0.0000032546515456033376)"><g clip-path="url(#clip0_0_1288)">
<path d="M20 0.866665V13.8C20 14.0222 19.9222 14.2222 19.7667 14.4C19.6111 14.5778 19.4111 14.6667 19.1667 14.6667C18.9222 14.6667 18.7111 14.5778 18.5333 14.4C18.3556 14.2222 18.2667 14.0222 18.2667 13.8V2.93333L1.46667 19.7333C1.28889 19.9111 1.07778 20 0.833333 20C0.588889 20 0.388889 19.9222 0.233333 19.7667C0.0777778 19.6111 0 19.4111 0 19.1667C0 18.9222 0.0888889 18.7111 0.266667 18.5333L17.0667 1.73333H6.2C5.97778 1.73333 5.77778 1.64444 5.6 1.46667C5.42222 1.28889 5.33333 1.07778 5.33333 0.833332C5.33333 0.588888 5.42222 0.388887 5.6 0.233332C5.77778 0.077776 5.97778 -1.90735e-06 6.2 -1.90735e-06H19.1333C19.4 -1.90735e-06 19.6111 0.077776 19.7667 0.233332C19.9222 0.388887 20 0.599998 20 0.866665Z" fill="white"/>
</g></g></g></svg>