<svg width="20" height="20" viewBox="0 0 20 20" fill="none" xmlns="http://www.w3.org/2000/svg">
<g clip-path="url(#clip0_0_1294)">
<path d="M19.1333 20H6.2C5.97778 20 5.77778 19.9222 5.6 19.7667C5.42222 19.6111 5.33333 19.4111 5.33333 19.1667C5.33333 18.9222 5.42222 18.7111 5.6 18.5333C5.77778 18.3556 5.97778 18.2667 6.2 18.2667H17.0667L0.266667 1.46667C0.0888889 1.28889 0 1.07778 0 0.833333C0 0.588889 0.0777778 0.388889 0.233333 0.233333C0.388889 0.0777778 0.588889 0 0.833333 0C1.07778 0 1.28889 0.0888889 1.46667 0.266667L18.2667 17.0667V6.2C18.2667 5.97778 18.3556 5.77778 18.5333 5.6C18.7111 5.42222 18.9222 5.33333 19.1667 5.33333C19.4111 5.33333 19.6111 5.42222 19.7667 5.6C19.9222 5.77778 20 5.97778 20 6.2V19.1333C20 19.4 19.9222 19.6111 19.7667 19.7667C19.6111 19.9222 19.4 20 19.1333 20Z" fill="#8750F7"/>
</g>
<defs>
<clipPath id="clip0_0_1294">
<rect width="20" height="20" fill="white" transform="matrix(0 1 1 0 0 0)"/>
</clipPath>
</defs>
</svg>
