<svg width="290" height="255" viewBox="0 0 290 255" fill="none" xmlns="http://www.w3.org/2000/svg">
<path d="M1.10584 253.678H0.237654V254.547H1.10584V253.678ZM1.10584 1.11647V0.248291H0.237654V1.11647H1.10584ZM31.6895 1.11647H32.5577V0.248291H31.6895V1.11647ZM31.6895 113.585H30.8213V114.454H31.6895V113.585ZM166.356 113.585V114.454H167.225V113.585H166.356ZM166.356 1.11647V0.248291H165.488V1.11647H166.356ZM196.94 1.11647H197.808V0.248291H196.94V1.11647ZM196.94 253.678V254.547H197.808V253.678H196.94ZM166.356 253.678H165.488V254.547H166.356V253.678ZM166.356 140.716H167.225V139.848H166.356V140.716ZM31.6895 140.716V139.848H30.8213V140.716H31.6895ZM31.6895 253.678V254.547H32.5577V253.678H31.6895ZM1.97402 253.678V1.11647H0.237654V253.678H1.97402ZM1.10584 1.98465H31.6895V0.248291H1.10584V1.98465ZM30.8213 1.11647V113.585H32.5577V1.11647H30.8213ZM31.6895 114.454H166.356V112.717H31.6895V114.454ZM167.225 113.585V1.11647H165.488V113.585H167.225ZM166.356 1.98465H196.94V0.248291H166.356V1.98465ZM196.072 1.11647V253.678H197.808V1.11647H196.072ZM196.94 252.81H166.356V254.547H196.94V252.81ZM167.225 253.678V140.716H165.488V253.678H167.225ZM166.356 139.848H31.6895V141.584H166.356V139.848ZM30.8213 140.716V253.678H32.5577V140.716H30.8213ZM31.6895 252.81H1.10584V254.547H31.6895V252.81ZM288.753 1.11647H289.621V0.248291H288.753V1.11647ZM288.753 253.678V254.547H289.621V253.678H288.753ZM258.169 253.678H257.301V254.547H258.169V253.678ZM258.169 1.11647V0.248291H257.301V1.11647H258.169ZM287.885 1.11647V253.678H289.621V1.11647H287.885ZM288.753 252.81H258.169V254.547H288.753V252.81ZM259.037 253.678V1.11647H257.301V253.678H259.037ZM258.169 1.98465H288.753V0.248291H258.169V1.98465Z" fill="#2A1454"/>
</svg>
